<?xml version="1.0" encoding="UTF-8" standalone="no"?>
<!-- Generator: Adobe Illustrator 19.0.0, SVG Export Plug-In . SVG Version: 6.00 Build 0)  -->

<svg
   xmlns:dc="http://purl.org/dc/elements/1.1/"
   xmlns:cc="http://creativecommons.org/ns#"
   xmlns:rdf="http://www.w3.org/1999/02/22-rdf-syntax-ns#"
   xmlns:svg="http://www.w3.org/2000/svg"
   xmlns="http://www.w3.org/2000/svg"
   xmlns:sodipodi="http://sodipodi.sourceforge.net/DTD/sodipodi-0.dtd"
   xmlns:inkscape="http://www.inkscape.org/namespaces/inkscape"
   version="1.1"
   id="Capa_1"
   x="0px"
   y="0px"
   viewBox="0 0 463 463"
   style="enable-background:new 0 0 463 463;"
   xml:space="preserve"
   width="512px"
   height="512px"
   inkscape:version="0.48.4 r9939"
   sodipodi:docname="libra.svg"><metadata
     id="metadata3102"><rdf:RDF><cc:Work
         rdf:about=""><dc:format>image/svg+xml</dc:format><dc:type
           rdf:resource="http://purl.org/dc/dcmitype/StillImage" /><dc:title></dc:title></cc:Work></rdf:RDF></metadata><defs
     id="defs3100" /><sodipodi:namedview
     pagecolor="#ffffff"
     bordercolor="#666666"
     borderopacity="1"
     objecttolerance="10"
     gridtolerance="10"
     guidetolerance="10"
     inkscape:pageopacity="0"
     inkscape:pageshadow="2"
     inkscape:window-width="1916"
     inkscape:window-height="1041"
     id="namedview3098"
     showgrid="false"
     inkscape:zoom="1.179432"
     inkscape:cx="146.98132"
     inkscape:cy="221.48156"
     inkscape:window-x="0"
     inkscape:window-y="18"
     inkscape:window-maximized="0"
     inkscape:current-layer="Capa_1" /><g
     id="g3068" /><g
     id="g3070" /><g
     id="g3072" /><g
     id="g3074" /><g
     id="g3076" /><g
     id="g3078" /><g
     id="g3080" /><g
     id="g3082" /><g
     id="g3084" /><g
     id="g3086" /><g
     id="g3088" /><g
     id="g3090" /><g
     id="g3092" /><g
     id="g3094" /><g
     id="g3096" /><g
     id="g3147"
     transform="matrix(0.98510638,0,0,1.0640102,1.0161458,-18.582259)"><path
       id="path3149"
       d="M 452.159,16.364 H 17.841 C 8.003,16.364 0,24.367 0,34.205 V 363.41 c 0,9.837 8.003,17.841 17.841,17.841 h 163.807 v 57.386 h -70.739 c -4.142,0 -7.5,3.358 -7.5,7.5 0,4.142 3.358,7.5 7.5,7.5 h 248.182 c 4.143,0 7.5,-3.358 7.5,-7.5 0,-4.142 -3.357,-7.5 -7.5,-7.5 H 288.353 V 381.25 H 452.16 c 9.838,0 17.841,-8.003 17.841,-17.841 V 34.205 C 470,24.367 461.997,16.364 452.159,16.364 z M 273.353,438.636 H 196.648 V 381.25 h 76.705 v 57.386 z M 455,363.409 c 0,1.54 -1.301,2.841 -2.841,2.841 H 17.841 C 16.301,366.25 15,364.949 15,363.409 V 34.205 c 0,-1.54 1.301,-2.841 2.841,-2.841 h 434.318 c 1.54,0 2.841,1.301 2.841,2.841 v 329.204 z"
       inkscape:connector-curvature="0"
       style="fill:#006df0" /><path
       id="path3151"
       d="M 431.478,305.227 H 38.523 c -4.142,0 -7.5,3.358 -7.5,7.5 0,4.142 3.358,7.5 7.5,7.5 h 392.955 c 4.143,0 7.5,-3.358 7.5,-7.5 0,-4.142 -3.358,-7.5 -7.5,-7.5 z"
       inkscape:connector-curvature="0"
       style="fill:#006df0" /><path
       id="path3153"
       d="m 110,280.227 h 40 c 4.142,0 7.5,-3.358 7.5,-7.5 V 163.919 c 0,-4.142 -3.358,-7.5 -7.5,-7.5 h -40 c -4.142,0 -7.5,3.358 -7.5,7.5 v 108.808 c 0,4.142 3.358,7.5 7.5,7.5 z m 7.5,-108.808 h 25 v 93.808 h -25 v -93.808 z"
       inkscape:connector-curvature="0"
       style="fill:#006df0" /><path
       id="path3155"
       d="m 180,280.227 h 40 c 4.142,0 7.5,-3.358 7.5,-7.5 V 128.436 c 0,-4.142 -3.358,-7.5 -7.5,-7.5 h -40 c -4.142,0 -7.5,3.358 -7.5,7.5 v 144.291 c 0,4.142 3.358,7.5 7.5,7.5 z m 7.5,-144.291 h 25 v 129.291 h -25 V 135.936 z"
       inkscape:connector-curvature="0"
       style="fill:#006df0" /><path
       id="path3157"
       d="m 250,280.227 h 40 c 4.143,0 7.5,-3.358 7.5,-7.5 V 94.886 c 0,-4.142 -3.357,-7.5 -7.5,-7.5 h -40 c -4.143,0 -7.5,3.358 -7.5,7.5 v 177.841 c 0,4.142 3.357,7.5 7.5,7.5 z m 7.5,-177.841 h 25 v 162.841 h -25 V 102.386 z"
       inkscape:connector-curvature="0"
       style="fill:#006df0" /><path
       id="path3159"
       d="m 320,280.227 h 40 c 4.143,0 7.5,-3.358 7.5,-7.5 v -74.291 c 0,-4.142 -3.357,-7.5 -7.5,-7.5 h -40 c -4.143,0 -7.5,3.358 -7.5,7.5 v 74.291 c 0,4.142 3.357,7.5 7.5,7.5 z m 7.5,-74.291 h 25 v 59.291 h -25 v -59.291 z"
       inkscape:connector-curvature="0"
       style="fill:#006df0" /></g></svg>