<?xml version="1.0" encoding="UTF-8" standalone="no"?>
<!-- Generator: Adobe Illustrator 18.0.0, SVG Export Plug-In . SVG Version: 6.00 Build 0)  -->

<svg
   xmlns:dc="http://purl.org/dc/elements/1.1/"
   xmlns:cc="http://creativecommons.org/ns#"
   xmlns:rdf="http://www.w3.org/1999/02/22-rdf-syntax-ns#"
   xmlns:svg="http://www.w3.org/2000/svg"
   xmlns="http://www.w3.org/2000/svg"
   xmlns:sodipodi="http://sodipodi.sourceforge.net/DTD/sodipodi-0.dtd"
   xmlns:inkscape="http://www.inkscape.org/namespaces/inkscape"
   version="1.1"
   id="Capa_1"
   x="0px"
   y="0px"
   viewBox="0 0 60 60"
   style="enable-background:new 0 0 60 60;"
   xml:space="preserve"
   width="512px"
   height="512px"
   inkscape:version="0.91 r"
   sodipodi:docname="comment.svg"><metadata
     id="metadata4322"><rdf:RDF><cc:Work
         rdf:about=""><dc:format>image/svg+xml</dc:format><dc:type
           rdf:resource="http://purl.org/dc/dcmitype/StillImage" /></cc:Work></rdf:RDF></metadata><defs
     id="defs4320" /><sodipodi:namedview
     pagecolor="#ffffff"
     bordercolor="#666666"
     borderopacity="1"
     objecttolerance="10"
     gridtolerance="10"
     guidetolerance="10"
     inkscape:pageopacity="0"
     inkscape:pageshadow="2"
     inkscape:window-width="1280"
     inkscape:window-height="920"
     id="namedview4318"
     showgrid="false"
     inkscape:zoom="1.2929688"
     inkscape:cx="292.35045"
     inkscape:cy="256"
     inkscape:window-x="0"
     inkscape:window-y="0"
     inkscape:window-maximized="0"
     inkscape:current-layer="Capa_1" /><path
     d="M54,2H6C2.748,2,0,4.748,0,8v33c0,3.252,2.748,6,6,6h8v10c0,0.413,0.254,0.784,0.639,0.933C14.757,57.978,14.879,58,15,58  c0.276,0,0.547-0.115,0.74-0.327L25.442,47H54c3.252,0,6-2.748,6-6V8C60,4.748,57.252,2,54,2z M58,41c0,2.168-1.832,4-4,4H27.179  l3.579-4.161c0.36-0.418,0.313-1.05-0.106-1.41c-0.418-0.36-1.051-0.312-1.411,0.106l-4.998,5.811L16,54.414V46c0-0.552-0.448-1-1-1  H6c-2.168,0-4-1.832-4-4V8c0-2.168,1.832-4,4-4h48c2.168,0,4,1.832,4,4V41z"
     fill="#006DF0"
     id="path4286"
     style="fill:#73879c;fill-opacity:1" /><g
     id="g4288" /><g
     id="g4290" /><g
     id="g4292" /><g
     id="g4294" /><g
     id="g4296" /><g
     id="g4298" /><g
     id="g4300" /><g
     id="g4302" /><g
     id="g4304" /><g
     id="g4306" /><g
     id="g4308" /><g
     id="g4310" /><g
     id="g4312" /><g
     id="g4314" /><g
     id="g4316" /></svg>