<?xml version="1.0" encoding="UTF-8" standalone="no"?>
<!-- Generator: Adobe Illustrator 18.0.0, SVG Export Plug-In . SVG Version: 6.00 Build 0)  -->

<svg
   xmlns:dc="http://purl.org/dc/elements/1.1/"
   xmlns:cc="http://creativecommons.org/ns#"
   xmlns:rdf="http://www.w3.org/1999/02/22-rdf-syntax-ns#"
   xmlns:svg="http://www.w3.org/2000/svg"
   xmlns="http://www.w3.org/2000/svg"
   xmlns:sodipodi="http://sodipodi.sourceforge.net/DTD/sodipodi-0.dtd"
   xmlns:inkscape="http://www.inkscape.org/namespaces/inkscape"
   version="1.1"
   id="Capa_1"
   x="0px"
   y="0px"
   viewBox="0 0 60 60"
   style="enable-background:new 0 0 60 60;"
   xml:space="preserve"
   width="512px"
   height="512px"
   inkscape:version="0.91 r"
   sodipodi:docname="comment-on.svg"><metadata
     id="metadata4257"><rdf:RDF><cc:Work
         rdf:about=""><dc:format>image/svg+xml</dc:format><dc:type
           rdf:resource="http://purl.org/dc/dcmitype/StillImage" /><dc:title></dc:title></cc:Work></rdf:RDF></metadata><defs
     id="defs4255" /><sodipodi:namedview
     pagecolor="#ffffff"
     bordercolor="#666666"
     borderopacity="1"
     objecttolerance="10"
     gridtolerance="10"
     guidetolerance="10"
     inkscape:pageopacity="0"
     inkscape:pageshadow="2"
     inkscape:window-width="1276"
     inkscape:window-height="881"
     id="namedview4253"
     showgrid="false"
     inkscape:zoom="1.2929688"
     inkscape:cx="256"
     inkscape:cy="256"
     inkscape:window-x="0"
     inkscape:window-y="18"
     inkscape:window-maximized="0"
     inkscape:current-layer="Capa_1" /><path
     d="M 54,2 6,2 C 2.748,2 0,4.748 0,8 l 0,33 c 0,3.252 2.748,6 6,6 l 8,0 0,10 c 0,0.413 0.254,0.784 0.639,0.933 C 14.757,57.978 14.879,58 15,58 c 0.276,0 0.547,-0.115 0.74,-0.327 L 25.442,47 54,47 c 3.252,0 6,-2.748 6,-6 L 60,8 C 60,4.748 57.252,2 54,2 Z"
     id="path4221"
     inkscape:connector-curvature="0"
     style="fill:#006df0"
     sodipodi:nodetypes="ssssscscsccssss" /><g
     id="g4223" /><g
     id="g4225" /><g
     id="g4227" /><g
     id="g4229" /><g
     id="g4231" /><g
     id="g4233" /><g
     id="g4235" /><g
     id="g4237" /><g
     id="g4239" /><g
     id="g4241" /><g
     id="g4243" /><g
     id="g4245" /><g
     id="g4247" /><g
     id="g4249" /><g
     id="g4251" /></svg>