<?xml version="1.0" encoding="UTF-8" standalone="no"?>
<!-- Generator: Adobe Illustrator 19.0.0, SVG Export Plug-In . SVG Version: 6.00 Build 0)  -->

<svg
   xmlns:dc="http://purl.org/dc/elements/1.1/"
   xmlns:cc="http://creativecommons.org/ns#"
   xmlns:rdf="http://www.w3.org/1999/02/22-rdf-syntax-ns#"
   xmlns:svg="http://www.w3.org/2000/svg"
   xmlns="http://www.w3.org/2000/svg"
   xmlns:sodipodi="http://sodipodi.sourceforge.net/DTD/sodipodi-0.dtd"
   xmlns:inkscape="http://www.inkscape.org/namespaces/inkscape"
   version="1.1"
   id="Capa_1"
   x="0px"
   y="0px"
   viewBox="0 0 59 59"
   style="enable-background:new 0 0 59 59;"
   xml:space="preserve"
   width="512px"
   height="512px"
   inkscape:version="0.91 r"
   sodipodi:docname="download.svg"><metadata
     id="metadata5848"><rdf:RDF><cc:Work
         rdf:about=""><dc:format>image/svg+xml</dc:format><dc:type
           rdf:resource="http://purl.org/dc/dcmitype/StillImage" /></cc:Work></rdf:RDF></metadata><defs
     id="defs5846" /><sodipodi:namedview
     pagecolor="#ffffff"
     bordercolor="#666666"
     borderopacity="1"
     objecttolerance="10"
     gridtolerance="10"
     guidetolerance="10"
     inkscape:pageopacity="0"
     inkscape:pageshadow="2"
     inkscape:window-width="1280"
     inkscape:window-height="920"
     id="namedview5844"
     showgrid="false"
     inkscape:zoom="0.4609375"
     inkscape:cx="64"
     inkscape:cy="256"
     inkscape:window-x="0"
     inkscape:window-y="0"
     inkscape:window-maximized="0"
     inkscape:current-layer="g5808" /><g
     id="g5808"><path
       d="M20.187,28.313c-0.391-0.391-1.023-0.391-1.414,0s-0.391,1.023,0,1.414l9.979,9.979C28.938,39.895,29.192,40,29.458,40   c0.007,0,0.014-0.004,0.021-0.004c0.007,0,0.013,0.004,0.021,0.004c0.333,0,0.613-0.173,0.795-0.423l9.891-9.891   c0.391-0.391,0.391-1.023,0-1.414s-1.023-0.391-1.414,0L30.5,36.544V1c0-0.553-0.447-1-1-1s-1,0.447-1,1v35.628L20.187,28.313z"
       fill="#006DF0"
       id="path5810"
       style="fill:#73879c;fill-opacity:1" /><path
       d="M36.5,16c-0.553,0-1,0.447-1,1s0.447,1,1,1h13v39h-40V18h13c0.553,0,1-0.447,1-1s-0.447-1-1-1h-15v43h44V16H36.5z"
       fill="#006DF0"
       id="path5812"
       style="fill:#73879c;fill-opacity:1" /></g><g
     id="g5814" /><g
     id="g5816" /><g
     id="g5818" /><g
     id="g5820" /><g
     id="g5822" /><g
     id="g5824" /><g
     id="g5826" /><g
     id="g5828" /><g
     id="g5830" /><g
     id="g5832" /><g
     id="g5834" /><g
     id="g5836" /><g
     id="g5838" /><g
     id="g5840" /><g
     id="g5842" /></svg>