<?xml version="1.0" encoding="UTF-8" standalone="no"?>
<!-- Generator: Adobe Illustrator 19.0.0, SVG Export Plug-In . SVG Version: 6.00 Build 0)  -->

<svg
   xmlns:dc="http://purl.org/dc/elements/1.1/"
   xmlns:cc="http://creativecommons.org/ns#"
   xmlns:rdf="http://www.w3.org/1999/02/22-rdf-syntax-ns#"
   xmlns:svg="http://www.w3.org/2000/svg"
   xmlns="http://www.w3.org/2000/svg"
   xmlns:sodipodi="http://sodipodi.sourceforge.net/DTD/sodipodi-0.dtd"
   xmlns:inkscape="http://www.inkscape.org/namespaces/inkscape"
   version="1.1"
   id="Capa_1"
   x="0px"
   y="0px"
   viewBox="0 0 60.017 60.017"
   style="enable-background:new 0 0 60.017 60.017;"
   xml:space="preserve"
   width="512px"
   height="512px"
   inkscape:version="0.91 r"
   sodipodi:docname="edit-on.svg"><metadata
     id="metadata4480"><rdf:RDF><cc:Work
         rdf:about=""><dc:format>image/svg+xml</dc:format><dc:type
           rdf:resource="http://purl.org/dc/dcmitype/StillImage" /><dc:title></dc:title></cc:Work></rdf:RDF></metadata><defs
     id="defs4478" /><sodipodi:namedview
     pagecolor="#ffffff"
     bordercolor="#666666"
     borderopacity="1"
     objecttolerance="10"
     gridtolerance="10"
     guidetolerance="10"
     inkscape:pageopacity="0"
     inkscape:pageshadow="2"
     inkscape:window-width="1276"
     inkscape:window-height="881"
     id="namedview4476"
     showgrid="false"
     inkscape:zoom="1.2929688"
     inkscape:cx="256"
     inkscape:cy="256"
     inkscape:window-x="0"
     inkscape:window-y="18"
     inkscape:window-maximized="0"
     inkscape:current-layer="Capa_1" /><path
     d="M59.144,3.731l-2.85-2.851c-1.164-1.161-3.057-1.162-4.221,0.001l-3.126,3.126H0v56h56V11.097l0.305-0.305l0,0l2.839-2.839  C60.308,6.789,60.308,4.895,59.144,3.731z M20.047,36.759l3.22,3.22l-4.428,1.208L20.047,36.759z M52.062,12.206L47.82,7.964  l1.414-1.414l4.243,4.242L52.062,12.206z M50.648,13.62L25.192,39.076l-4.242-4.242L46.406,9.378L50.648,13.62z M54,13.097v44.91H2  v-52h44.947L18.829,34.127l-0.188,0.188l-2.121,7.779l-1.226,1.226c-0.391,0.391-0.391,1.023,0,1.414  c0.195,0.195,0.451,0.293,0.707,0.293s0.512-0.098,0.707-0.293l1.226-1.226l7.779-2.123l26.351-26.35h0l0.447-0.447L54,13.097z   M57.73,6.539l-2.839,2.839l-4.243-4.243l2.839-2.839c0.384-0.384,1.009-0.383,1.393,0l2.85,2.85  C58.114,5.529,58.114,6.155,57.73,6.539z"
     fill="#006DF0"
     id="path4444" /><g
     id="g4446" /><g
     id="g4448" /><g
     id="g4450" /><g
     id="g4452" /><g
     id="g4454" /><g
     id="g4456" /><g
     id="g4458" /><g
     id="g4460" /><g
     id="g4462" /><g
     id="g4464" /><g
     id="g4466" /><g
     id="g4468" /><g
     id="g4470" /><g
     id="g4472" /><g
     id="g4474" /><path
     style="fill:#006df0;fill-opacity:1;stroke:#0080ff;stroke-width:15.46827793;stroke-linecap:butt;stroke-linejoin:miter;stroke-miterlimit:4;stroke-dasharray:none;stroke-opacity:1"
     d="m 17.324471,272.93776 0,-221.583077 191.225659,0 191.22566,0 -120.49888,120.500727 -120.49887,120.50073 -9.13049,33.4366 -9.13048,33.43661 -6.29721,6.45155 c -5.8656,6.00937 -6.2972,6.67514 -6.2972,9.71366 0,4.07185 2.20444,7.34126 5.73574,8.50669 4.15538,1.3714 6.57761,0.21757 13.3327,-6.35103 l 6.30711,-6.13298 32.75029,-8.89684 32.75029,-8.89683 120.84592,-120.77702 120.84592,-120.77702 0,191.22566 0,191.22566 -221.58308,0 -221.583079,0 0,-221.58309 z"
     id="path4552"
     inkscape:connector-curvature="0"
     transform="scale(0.1172207,0.1172207)" /></svg>