<?xml version="1.0" encoding="UTF-8" standalone="no"?>
<!-- Created with Inkscape (http://www.inkscape.org/) -->

<svg
   xmlns:dc="http://purl.org/dc/elements/1.1/"
   xmlns:cc="http://creativecommons.org/ns#"
   xmlns:rdf="http://www.w3.org/1999/02/22-rdf-syntax-ns#"
   xmlns:svg="http://www.w3.org/2000/svg"
   xmlns="http://www.w3.org/2000/svg"
   xmlns:sodipodi="http://sodipodi.sourceforge.net/DTD/sodipodi-0.dtd"
   xmlns:inkscape="http://www.inkscape.org/namespaces/inkscape"
   width="64"
   height="64"
   viewBox="0 0 64.000001 64.000001"
   id="svg2"
   version="1.1"
   inkscape:version="0.91 r"
   sodipodi:docname="favicon.svg">
  <defs
     id="defs4" />
  <sodipodi:namedview
     id="base"
     pagecolor="#ffffff"
     bordercolor="#666666"
     borderopacity="1.0"
     inkscape:pageopacity="0.0"
     inkscape:pageshadow="2"
     inkscape:zoom="1.979899"
     inkscape:cx="85.869853"
     inkscape:cy="-97.705911"
     inkscape:document-units="px"
     inkscape:current-layer="g3332"
     showgrid="false"
     units="px"
     inkscape:window-width="1276"
     inkscape:window-height="881"
     inkscape:window-x="0"
     inkscape:window-y="18"
     inkscape:window-maximized="0" />
  <metadata
     id="metadata7">
    <rdf:RDF>
      <cc:Work
         rdf:about="">
        <dc:format>image/svg+xml</dc:format>
        <dc:type
           rdf:resource="http://purl.org/dc/dcmitype/StillImage" />
        <dc:title></dc:title>
      </cc:Work>
    </rdf:RDF>
  </metadata>
  <g
     inkscape:label="Capa 1"
     inkscape:groupmode="layer"
     id="layer1"
     transform="translate(0,-988.36216)">
    <g
       transform="translate(-31.580572,865.4693)"
       style="font-size:12px;font-family:sans-serif;fill:none;stroke-miterlimit:10"
       id="g3332"
       font-size="12"
       data-paper-data="{&quot;description&quot;:&quot;Logo for intraLex\n=================\n\nThis logo was generated by MarkMaker and is composed of elements designed by others.\n\nThe font is Libre Baskerville Bold designed by Impallari Type and released under the OFL license via Google Fonts: https://www.google.com/fonts/specimen/Libre Baskerville. The font includes this copyright statement: Copyright (c) 2012, Pablo Impallari (www.impallari.com|impallari@gmail.com), Copyright (c) 2012, Rodrigo Fuenzalida (www.rfuenzalida.com|hello@rfuenzalida.com), with Reserved Font Name Libre Baskerville.\n\nMarkMaker uses semantic data from the Princeton University WordNet database http://wordnet.princeton.edu and font descriptions from Google Fonts https://www.google.com/fonts.\n\nThis design is inspired by designs that past users of MarkMaker have liked. As a result, it may be visually similar to past or future designs generated by the system. There is no guarantee that it is unique, original, or suitable in any way for use as a logo.\n\n&quot;}"
       stroke-miterlimit="10"
       stroke-width="none">
      <path
         style="stroke:#1a1a1a;stroke-width:2.0999999"
         inkscape:connector-curvature="0"
         id="path3334"
         d="m 43.375,154.75 c 0,-11.217 9.093,-20.31 20.31,-20.31 11.218,0 20.31,9.093 20.31,20.31 0,11.217 -9.092,20.31 -20.31,20.31 -11.217,0 -20.31,-9.093 -20.31,-20.31 z" />
      <g
         style="fill:#1a1a1a;stroke-width:1"
         id="g3336"
         data-paper-data="{&quot;baselineProportion&quot;:0.9880952380952381,&quot;fontSize&quot;:100,&quot;baseline&quot;:83,&quot;elementType&quot;:&quot;word&quot;}" />
      <path
         style="fill:#1a1a1a"
         inkscape:connector-curvature="0"
         id="path3352"
         data-paper-data="{&quot;elementType&quot;:&quot;letter&quot;,&quot;baseline&quot;:77,&quot;baselineProportion&quot;:1,&quot;fontSize&quot;:100}"
         d="m 69.336,166.936 -11.3,0 0,-1.266 c 0.717,-0.02 1.292,-0.09 1.725,-0.205 0.44,-0.117 0.77,-0.333 1,-0.65 0.23,-0.316 0.39,-0.764 0.48,-1.345 0.09,-0.58 0.13,-1.366 0.13,-2.358 l 0,-12.724 c 0,-0.887 -0.03,-1.62 -0.11,-2.2 -0.07,-0.58 -0.21,-1.04 -0.43,-1.377 -0.21,-0.33 -0.51,-0.57 -0.9,-0.71 -0.39,-0.14 -0.91,-0.22 -1.56,-0.27 l 0,-1.26 10.66,0 0,1.27 c -0.65,0.05 -1.17,0.14 -1.56,0.27 -0.39,0.14 -0.69,0.38 -0.9,0.71 -0.21,0.34 -0.35,0.8 -0.42,1.38 -0.07,0.58 -0.11,1.31 -0.11,2.2 l 0,12.73 c 0,0.99 0.04,1.78 0.11,2.36 0.08,0.58 0.23,1.03 0.48,1.35 0.24,0.32 0.58,0.54 1.02,0.65 0.44,0.12 1.01,0.19 1.73,0.21 l 0,1.27 z" />
    </g>
  </g>
</svg>
