<?xml version="1.0" encoding="UTF-8" standalone="no"?>
<!-- Generator: Adobe Illustrator 19.0.0, SVG Export Plug-In . SVG Version: 6.00 Build 0)  -->

<svg
   xmlns:dc="http://purl.org/dc/elements/1.1/"
   xmlns:cc="http://creativecommons.org/ns#"
   xmlns:rdf="http://www.w3.org/1999/02/22-rdf-syntax-ns#"
   xmlns:svg="http://www.w3.org/2000/svg"
   xmlns="http://www.w3.org/2000/svg"
   xmlns:sodipodi="http://sodipodi.sourceforge.net/DTD/sodipodi-0.dtd"
   xmlns:inkscape="http://www.inkscape.org/namespaces/inkscape"
   version="1.1"
   id="Capa_1"
   x="0px"
   y="0px"
   viewBox="0 0 57 57"
   style="enable-background:new 0 0 57 57;"
   xml:space="preserve"
   sodipodi:docname="fforward.svg"
   inkscape:version="0.92.0 r"><metadata
     id="metadata4580"><rdf:RDF><cc:Work
         rdf:about=""><dc:format>image/svg+xml</dc:format><dc:type
           rdf:resource="http://purl.org/dc/dcmitype/StillImage" /><dc:title></dc:title></cc:Work></rdf:RDF></metadata><defs
     id="defs4578" /><sodipodi:namedview
     pagecolor="#ffffff"
     bordercolor="#666666"
     borderopacity="1"
     objecttolerance="10"
     gridtolerance="10"
     guidetolerance="10"
     inkscape:pageopacity="0"
     inkscape:pageshadow="2"
     inkscape:window-width="1916"
     inkscape:window-height="1041"
     id="namedview4576"
     showgrid="false"
     inkscape:zoom="15"
     inkscape:cx="27.566667"
     inkscape:cy="28.5"
     inkscape:window-x="1920"
     inkscape:window-y="18"
     inkscape:window-maximized="0"
     inkscape:current-layer="Capa_1" /><path
     d="M 0.539,8.625 C 0.872,8.453 1.269,8.48 1.575,8.694 L 28,27.277 V 9.5 c 0,-0.373 0.208,-0.716 0.539,-0.888 0.333,-0.172 0.731,-0.146 1.036,0.07 l 27,19 C 56.842,27.869 57,28.175 57,28.5 c 0,0.325 -0.158,0.631 -0.425,0.817 l -27,19 C 29.403,48.439 29.202,48.5 29,48.5 28.843,48.5 28.685,48.463 28.539,48.388 28.208,48.216 28,47.873 28,47.5 V 29.723 L 1.575,48.306 C 1.403,48.426 1.202,48.488 1,48.488 0.843,48.488 0.685,48.451 0.539,48.376 0.208,48.203 0,47.86 0,47.487 V 9.513 C 0,9.14 0.208,8.797 0.539,8.625 Z M 30,45.573 54.263,28.5 30,11.427 Z M 2,45.562 26.262,28.5 2,11.439 Z"
     id="path4543"
     style="fill:#73879c;fill-opacity:1;stroke:none;stroke-opacity:1"
     inkscape:connector-curvature="0" /><g
     id="g4545" /><g
     id="g4547" /><g
     id="g4549" /><g
     id="g4551" /><g
     id="g4553" /><g
     id="g4555" /><g
     id="g4557" /><g
     id="g4559" /><g
     id="g4561" /><g
     id="g4563" /><g
     id="g4565" /><g
     id="g4567" /><g
     id="g4569" /><g
     id="g4571" /><g
     id="g4573" /></svg>