<?xml version="1.0" encoding="UTF-8" standalone="no"?>
<!-- Generator: Adobe Illustrator 19.0.0, SVG Export Plug-In . SVG Version: 6.00 Build 0)  -->

<svg
   xmlns:dc="http://purl.org/dc/elements/1.1/"
   xmlns:cc="http://creativecommons.org/ns#"
   xmlns:rdf="http://www.w3.org/1999/02/22-rdf-syntax-ns#"
   xmlns:svg="http://www.w3.org/2000/svg"
   xmlns="http://www.w3.org/2000/svg"
   xmlns:sodipodi="http://sodipodi.sourceforge.net/DTD/sodipodi-0.dtd"
   xmlns:inkscape="http://www.inkscape.org/namespaces/inkscape"
   version="1.1"
   id="Capa_1"
   x="0px"
   y="0px"
   viewBox="0 0 490 490"
   style="enable-background:new 0 0 490 490;"
   xml:space="preserve"
   width="512px"
   height="512px"
   inkscape:version="0.91 r"
   sodipodi:docname="highlighter.svg"><metadata
     id="metadata8159"><rdf:RDF><cc:Work
         rdf:about=""><dc:format>image/svg+xml</dc:format><dc:type
           rdf:resource="http://purl.org/dc/dcmitype/StillImage" /></cc:Work></rdf:RDF></metadata><defs
     id="defs8157" /><sodipodi:namedview
     pagecolor="#ffffff"
     bordercolor="#666666"
     borderopacity="1"
     objecttolerance="10"
     gridtolerance="10"
     guidetolerance="10"
     inkscape:pageopacity="0"
     inkscape:pageshadow="2"
     inkscape:window-width="1280"
     inkscape:window-height="920"
     id="namedview8155"
     showgrid="false"
     inkscape:zoom="0.4609375"
     inkscape:cx="64"
     inkscape:cy="256"
     inkscape:window-x="0"
     inkscape:window-y="0"
     inkscape:window-maximized="0"
     inkscape:current-layer="Capa_1" /><path
     d="M463.383,27.507C416.65-18.151,362.832,2.481,342.27,22.056L95.791,237.297c-2.107,1.844-3.379,4.47-3.525,7.275  L51.87,366.91L0,420.834L102.596,490l34.265-35.614l117.468-41.924c2.831-0.205,5.453-1.567,7.244-3.784L468.61,152.441  C498.522,115.418,497.318,60.661,463.383,27.507z M99.772,463.161l-67.845-45.735L60.903,387.3l31.44,32.688l24.478,25.45  L99.772,463.161z M133.943,433.454l-55.607-57.812l-5.697-5.923l34.255-103.742l126.839,131.861L133.943,433.454z M452.637,139.375  l-199.72,247.182L117.495,245.772L355.77,37.701c13.944-14.589,57.664-31.155,92.815,4.206  C474.246,67.722,475.598,110.958,452.637,139.375z"
     fill="#006DF0"
     id="path8123"
     style="fill:#73879c;fill-opacity:1" /><g
     id="g8125" /><g
     id="g8127" /><g
     id="g8129" /><g
     id="g8131" /><g
     id="g8133" /><g
     id="g8135" /><g
     id="g8137" /><g
     id="g8139" /><g
     id="g8141" /><g
     id="g8143" /><g
     id="g8145" /><g
     id="g8147" /><g
     id="g8149" /><g
     id="g8151" /><g
     id="g8153" /></svg>