<?xml version="1.0" encoding="UTF-8" standalone="no"?>
<svg
   xmlns:dc="http://purl.org/dc/elements/1.1/"
   xmlns:cc="http://creativecommons.org/ns#"
   xmlns:rdf="http://www.w3.org/1999/02/22-rdf-syntax-ns#"
   xmlns:svg="http://www.w3.org/2000/svg"
   xmlns="http://www.w3.org/2000/svg"
   xmlns:sodipodi="http://sodipodi.sourceforge.net/DTD/sodipodi-0.dtd"
   xmlns:inkscape="http://www.inkscape.org/namespaces/inkscape"
   width="230"
   height="43"
   id="svg3330"
   version="1.1"
   inkscape:version="0.48.4 r9939"
   sodipodi:docname="intralex-logo.svg">
  <metadata
     id="metadata3358">
    <rdf:RDF>
      <cc:Work
         rdf:about="">
        <dc:format>image/svg+xml</dc:format>
        <dc:type
           rdf:resource="http://purl.org/dc/dcmitype/StillImage" />
      </cc:Work>
    </rdf:RDF>
  </metadata>
  <defs
     id="defs3356" />
  <sodipodi:namedview
     pagecolor="#ffffff"
     bordercolor="#666666"
     borderopacity="1"
     objecttolerance="10"
     gridtolerance="10"
     guidetolerance="10"
     inkscape:pageopacity="0"
     inkscape:pageshadow="2"
     inkscape:window-width="956"
     inkscape:window-height="1041"
     id="namedview3354"
     showgrid="false"
     inkscape:zoom="1.5733333"
     inkscape:cx="218.10811"
     inkscape:cy="20.693924"
     inkscape:window-x="960"
     inkscape:window-y="18"
     inkscape:window-maximized="0"
     inkscape:current-layer="svg3330" />
  <g
     stroke-width="none"
     stroke-miterlimit="10"
     data-paper-data="{&quot;description&quot;:&quot;Logo for intraLex\n=================\n\nThis logo was generated by MarkMaker and is composed of elements designed by others.\n\nThe font is Libre Baskerville Bold designed by Impallari Type and released under the OFL license via Google Fonts: https://www.google.com/fonts/specimen/Libre Baskerville. The font includes this copyright statement: Copyright (c) 2012, Pablo Impallari (www.impallari.com|impallari@gmail.com), Copyright (c) 2012, Rodrigo Fuenzalida (www.rfuenzalida.com|hello@rfuenzalida.com), with Reserved Font Name Libre Baskerville.\n\nMarkMaker uses semantic data from the Princeton University WordNet database http://wordnet.princeton.edu and font descriptions from Google Fonts https://www.google.com/fonts.\n\nThis design is inspired by designs that past users of MarkMaker have liked. As a result, it may be visually similar to past or future designs generated by the system. There is no guarantee that it is unique, original, or suitable in any way for use as a logo.\n\n&quot;}"
     font-size="12"
     id="g3332"
     style="font-size:12px;fill:none;stroke-miterlimit:10;font-family:sans-serif"
     transform="translate(-40.135594,-133.05933)">
    <path
       d="m 41.375,154.75 c 0,-11.217 9.093,-20.31 20.31,-20.31 11.218,0 20.31,9.093 20.31,20.31 0,11.217 -9.092,20.31 -20.31,20.31 -11.217,0 -20.31,-9.093 -20.31,-20.31 z"
       id="path3334"
       inkscape:connector-curvature="0"
       style="stroke:#1a1a1a;stroke-width:2.0999999" />
    <g
       data-paper-data="{&quot;baselineProportion&quot;:0.9880952380952381,&quot;fontSize&quot;:100,&quot;baseline&quot;:83,&quot;elementType&quot;:&quot;word&quot;}"
       id="g3336"
       style="fill:#1a1a1a;stroke-width:1">
      <path
         d="m 92.806,159.954 c 0,1.1 0.033,1.968 0.1,2.6 0.068,0.63 0.216,1.114 0.444,1.45 0.228,0.336 0.578,0.557 1.048,0.665 0.47,0.1 1.108,0.18 1.914,0.24 v 1.61 H 83.618 v -1.61 c 0.78,-0.06 1.403,-0.14 1.874,-0.24 0.47,-0.11 0.832,-0.33 1.088,-0.65 0.255,-0.32 0.423,-0.78 0.503,-1.37 0.08,-0.59 0.12,-1.4 0.12,-2.42 v -5.03 c 0,-1.59 -0.026,-2.87 -0.08,-3.85 -0.053,-0.98 -0.12,-1.65 -0.2,-2 -0.08,-0.35 -0.19,-0.64 -0.323,-0.87 -0.134,-0.23 -0.336,-0.41 -0.605,-0.53 -0.268,-0.12 -0.604,-0.2 -1.007,-0.24 -0.403,-0.04 -0.914,-0.06 -1.53,-0.06 v -1.37 l 7.776,-1.53 0.524,3.54 h 0.16 c 0.888,-1.13 1.936,-2 3.145,-2.62 1.21,-0.62 2.538,-0.93 3.99,-0.93 1.72,0 3.11,0.23 4.17,0.7 1.06,0.47 2.008,1.26 2.84,2.36 0.458,0.62 0.86,1.42 1.21,2.4 0.35,0.98 0.524,2.33 0.524,4.05 v 5.68 c 0,1.1 0.034,1.97 0.1,2.6 0.068,0.63 0.216,1.11 0.444,1.45 0.23,0.33 0.58,0.56 1.03,0.66 0.46,0.1 1.08,0.18 1.86,0.24 v 1.61 H 98.61 v -1.61 c 0.805,-0.02 1.443,-0.1 1.913,-0.22 0.47,-0.12 0.826,-0.34 1.068,-0.66 0.25,-0.32 0.41,-0.79 0.49,-1.39 0.08,-0.61 0.12,-1.41 0.12,-2.4 v -5.48 c 0,-1.37 -0.08,-2.53 -0.24,-3.47 -0.16,-0.94 -0.42,-1.7 -0.78,-2.28 -0.36,-0.58 -0.84,-1 -1.43,-1.25 -0.59,-0.26 -1.33,-0.38 -2.21,-0.38 -0.86,0 -1.6,0.24 -2.21,0.72 -0.61,0.48 -1.15,1.15 -1.61,2.01 -0.24,0.484 -0.45,1.11 -0.62,1.88 -0.17,0.77 -0.26,1.57 -0.26,2.4 v 5.56 z"
         data-paper-data="{&quot;elementType&quot;:&quot;letter&quot;,&quot;baseline&quot;:54,&quot;baselineProportion&quot;:1,&quot;fontSize&quot;:100}"
         id="path3338"
         inkscape:connector-curvature="0" />
      <path
         d="m 116.1,147.38 v -1.813 c 1.61,-0.457 2.96,-1.148 4.05,-2.075 1.087,-0.927 1.9,-1.995 2.437,-3.204 h 2.055 v 4.876 h 4.634 v 2.217 h -4.634 v 12.38 c 0,1.67 0.18,2.85 0.544,3.55 0.363,0.7 0.974,1.05 1.834,1.05 1.047,0 1.84,-0.48 2.377,-1.45 l 0.847,1.17 c -0.753,1.91 -2.526,2.87 -5.32,2.87 -1.854,0 -3.298,-0.43 -4.332,-1.29 -1.034,-0.86 -1.552,-2.07 -1.552,-3.63 V 147.4 h -2.94 z"
         data-paper-data="{&quot;elementType&quot;:&quot;letter&quot;,&quot;baseline&quot;:65.10000000000001,&quot;baselineProportion&quot;:0.9848714069591528,&quot;fontSize&quot;:100}"
         id="path3340"
         inkscape:connector-curvature="0" />
      <path
         d="m 144.227,160.276 c 0,1.048 0.047,1.874 0.14,2.48 0.095,0.603 0.29,1.067 0.586,1.39 0.295,0.32 0.725,0.53 1.29,0.624 0.563,0.094 1.316,0.14 2.256,0.14 v 1.613 h -13.46 v -1.612 c 0.8,-0.05 1.45,-0.13 1.93,-0.24 0.48,-0.11 0.84,-0.32 1.09,-0.64 0.24,-0.32 0.39,-0.78 0.46,-1.39 0.06,-0.6 0.1,-1.41 0.1,-2.44 v -4.91 c 0,-1.66 -0.04,-2.99 -0.12,-3.99 -0.08,-0.99 -0.26,-1.76 -0.53,-2.29 -0.27,-0.54 -0.65,-0.89 -1.15,-1.07 -0.5,-0.17 -1.15,-0.26 -1.96,-0.26 v -1.41 l 8.06,-1.49 0.64,4.64 h 0.16 c 0.72,-1.42 1.68,-2.55 2.86,-3.38 1.18,-0.83 2.43,-1.25 3.75,-1.25 1.02,0 1.85,0.26 2.49,0.77 0.65,0.51 0.97,1.16 0.97,1.94 0,0.86 -0.25,1.59 -0.75,2.18 -0.5,0.59 -1.18,0.89 -2.04,0.89 -0.41,0 -0.77,-0.08 -1.09,-0.24 -0.33,-0.16 -0.61,-0.34 -0.87,-0.54 -0.26,-0.2 -0.51,-0.39 -0.77,-0.57 -0.26,-0.17 -0.52,-0.26 -0.79,-0.26 -0.51,0 -1,0.34 -1.45,1.01 -0.46,0.67 -0.84,1.57 -1.13,2.7 -0.22,0.81 -0.39,1.72 -0.53,2.72 -0.14,1.01 -0.21,2.01 -0.21,3.01 v 1.93 z"
         data-paper-data="{&quot;elementType&quot;:&quot;letter&quot;,&quot;baseline&quot;:54,&quot;baselineProportion&quot;:1,&quot;fontSize&quot;:100}"
         id="path3342"
         inkscape:connector-curvature="0" />
      <path
         d="m 171.107,152.902 v -1.693 c 0,-1.56 -0.276,-2.7 -0.827,-3.41 -0.55,-0.71 -1.403,-1.07 -2.56,-1.07 -0.778,0 -1.37,0.21 -1.772,0.62 -0.403,0.41 -0.78,1.11 -1.128,2.07 -0.242,0.67 -0.584,1.19 -1.028,1.57 -0.443,0.38 -1.054,0.56 -1.833,0.56 -0.76,0 -1.33,-0.23 -1.74,-0.69 -0.41,-0.46 -0.61,-1.1 -0.61,-1.94 0,-1.29 0.7,-2.31 2.11,-3.06 1.41,-0.75 3.54,-1.13 6.38,-1.13 3.01,0 5.16,0.54 6.45,1.63 1.29,1.08 1.93,2.9 1.93,5.46 v 8.82 c 0,2.28 0.45,3.42 1.37,3.42 0.51,0 0.98,-0.18 1.41,-0.53 l 0.6,1.17 c -0.38,0.67 -0.96,1.2 -1.76,1.59 -0.8,0.39 -1.69,0.58 -2.68,0.58 -1.24,0 -2.18,-0.38 -2.83,-1.13 -0.65,-0.75 -0.97,-1.81 -0.97,-3.18 h -0.2 c -0.78,1.39 -1.79,2.45 -3.02,3.18 -1.24,0.72 -2.65,1.08 -4.23,1.08 -1.69,0 -3.05,-0.478 -4.07,-1.43 -1.02,-0.955 -1.53,-2.198 -1.53,-3.73 0,-1.18 0.52,-2.29 1.57,-3.324 1.05,-1.034 2.79,-2.047 5.24,-3.04 l 5.68,-2.46 z m 0,2.135 c -2.257,1.02 -3.956,1.968 -5.098,2.84 -1.15,0.875 -1.72,1.78 -1.72,2.722 0,0.77 0.21,1.39 0.64,1.85 0.43,0.45 0.96,0.68 1.61,0.68 0.65,0 1.25,-0.12 1.81,-0.34 0.56,-0.23 1.04,-0.53 1.45,-0.91 0.41,-0.38 0.72,-0.83 0.94,-1.35 0.23,-0.53 0.34,-1.08 0.34,-1.67 v -3.83"
         data-paper-data="{&quot;elementType&quot;:&quot;letter&quot;,&quot;baseline&quot;:54,&quot;baselineProportion&quot;:0.9818181818181818,&quot;fontSize&quot;:100}"
         id="path3344"
         inkscape:connector-curvature="0" />
      <path
         d="M 212.897,166.523 H 185.13 v -1.612 c 0.887,-0.02 1.613,-0.1 2.177,-0.24 0.564,-0.13 0.994,-0.36 1.29,-0.68 0.295,-0.32 0.496,-0.78 0.604,-1.37 0.11,-0.59 0.17,-1.35 0.17,-2.29 V 141.7 c 0,-0.94 -0.04,-1.7 -0.14,-2.276 -0.09,-0.578 -0.27,-1.035 -0.54,-1.37 -0.27,-0.336 -0.65,-0.565 -1.15,-0.686 -0.49,-0.12 -1.14,-0.208 -1.95,-0.262 v -1.612 h 13.91 v 1.612 c -0.91,0.027 -1.65,0.108 -2.2,0.242 -0.55,0.134 -0.97,0.376 -1.27,0.726 -0.29,0.35 -0.49,0.832 -0.58,1.45 -0.09,0.618 -0.14,1.438 -0.14,2.46 v 16.884 c 0,1.128 0.11,2.048 0.34,2.76 0.23,0.712 0.63,1.263 1.19,1.652 0.56,0.39 1.32,0.66 2.26,0.805 0.94,0.148 2.11,0.222 3.51,0.222 1.56,0 2.86,-0.094 3.91,-0.282 1.05,-0.188 1.93,-0.544 2.64,-1.068 0.71,-0.524 1.28,-1.23 1.71,-2.116 0.43,-0.88 0.8,-2.04 1.09,-3.46 h 1.61 l -0.64,9.15 z"
         data-paper-data="{&quot;elementType&quot;:&quot;letter&quot;,&quot;baseline&quot;:77,&quot;baselineProportion&quot;:1,&quot;fontSize&quot;:100}"
         id="path3346"
         inkscape:connector-curvature="0" />
      <path
         d="m 239.252,162.775 c -2.445,2.767 -5.494,4.15 -9.148,4.15 -1.666,0 -3.177,-0.26 -4.534,-0.785 -1.356,-0.524 -2.518,-1.263 -3.485,-2.217 -0.968,-0.953 -1.72,-2.09 -2.257,-3.405 -0.537,-1.316 -0.806,-2.78 -0.806,-4.393 0,-1.665 0.282,-3.19 0.846,-4.574 0.564,-1.38 1.364,-2.57 2.398,-3.58 1.034,-1.01 2.257,-1.79 3.667,-2.36 1.41,-0.56 2.962,-0.84 4.655,-0.84 2.847,0 5.064,0.77 6.65,2.3 1.584,1.54 2.377,3.68 2.377,6.45 0,0.43 -0.068,0.69 -0.202,0.79 -0.134,0.1 -0.51,0.14 -1.128,0.14 H 225.31 c -0.11,0.25 -0.163,0.69 -0.163,1.33 0,2.64 0.57,4.72 1.713,6.25 1.142,1.53 2.693,2.3 4.655,2.3 1.128,0 2.25,-0.25 3.365,-0.76 1.114,-0.51 2.196,-1.23 3.244,-2.17 l 1.128,1.41 m -7.818,-10.59 c 1.075,0 1.766,-0.06 2.075,-0.18 0.3,-0.12 0.46,-0.41 0.46,-0.87 0,-1.18 -0.34,-2.15 -1.01,-2.9 -0.67,-0.75 -1.52,-1.13 -2.54,-1.13 -1.16,0 -2.19,0.48 -3.09,1.43 -0.9,0.95 -1.49,2.17 -1.76,3.65 h 5.84 z"
         data-paper-data="{&quot;elementType&quot;:&quot;letter&quot;,&quot;baseline&quot;:54,&quot;baselineProportion&quot;:0.9818181818181818,&quot;fontSize&quot;:100}"
         id="path3348"
         inkscape:connector-curvature="0" />
      <path
         d="m 260.37,150.242 c 0.563,-0.726 0.94,-1.236 1.127,-1.532 0.188,-0.295 0.282,-0.59 0.282,-0.886 0,-0.376 -0.16,-0.645 -0.47,-0.806 -0.31,-0.16 -0.83,-0.242 -1.55,-0.242 v -1.612 h 9.27 v 1.612 c -0.51,0.027 -0.97,0.08 -1.37,0.16 -0.41,0.082 -0.81,0.236 -1.21,0.465 -0.41,0.23 -0.82,0.55 -1.25,0.95 -0.43,0.41 -0.93,0.93 -1.49,1.57 l -4.11,4.76 6.36,8.18 c 0.61,0.81 1.22,1.35 1.81,1.63 0.59,0.29 1.33,0.43 2.21,0.43 v 1.62 h -12.81 v -1.61 c 0.78,0 1.32,-0.06 1.63,-0.2 0.31,-0.13 0.46,-0.39 0.46,-0.76 0,-0.29 -0.1,-0.61 -0.29,-0.94 -0.19,-0.33 -0.47,-0.77 -0.85,-1.31 l -2.34,-3.22 -1.77,2.13 c -0.45,0.56 -0.82,1.02 -1.08,1.37 -0.27,0.35 -0.47,0.63 -0.61,0.85 -0.14,0.22 -0.22,0.39 -0.26,0.51 -0.04,0.12 -0.06,0.24 -0.06,0.34 0,0.46 0.19,0.78 0.58,0.97 0.39,0.19 1.01,0.29 1.87,0.29 v 1.61 h -10.11 v -1.61 c 0.86,0 1.69,-0.125 2.49,-0.38 0.81,-0.25 1.44,-0.65 1.9,-1.19 l 5.6,-6.562 -6.73,-8.54 c -0.51,-0.646 -0.96,-1.05 -1.35,-1.21 -0.39,-0.16 -0.92,-0.24 -1.59,-0.24 v -1.62 h 12.29 v 1.61 c -1.37,0 -2.05,0.377 -2.05,1.13 0,0.27 0.15,0.62 0.44,1.05 l 2.86,4.03 2.14,-2.74 z"
         data-paper-data="{&quot;elementType&quot;:&quot;letter&quot;,&quot;baseline&quot;:53,&quot;baselineProportion&quot;:1,&quot;fontSize&quot;:100}"
         id="path3350"
         inkscape:connector-curvature="0" />
    </g>
    <path
       d="m 67.336,166.936 h -11.3 v -1.266 c 0.717,-0.02 1.292,-0.09 1.725,-0.205 0.44,-0.117 0.77,-0.333 1,-0.65 0.23,-0.316 0.39,-0.764 0.48,-1.345 0.09,-0.58 0.13,-1.366 0.13,-2.358 v -12.724 c 0,-0.887 -0.03,-1.62 -0.11,-2.2 -0.07,-0.58 -0.21,-1.04 -0.43,-1.377 -0.21,-0.33 -0.51,-0.57 -0.9,-0.71 -0.39,-0.14 -0.91,-0.22 -1.56,-0.27 v -1.26 h 10.66 v 1.27 c -0.65,0.05 -1.17,0.14 -1.56,0.27 -0.39,0.14 -0.69,0.38 -0.9,0.71 -0.21,0.34 -0.35,0.8 -0.42,1.38 -0.07,0.58 -0.11,1.31 -0.11,2.2 v 12.73 c 0,0.99 0.04,1.78 0.11,2.36 0.08,0.58 0.23,1.03 0.48,1.35 0.24,0.32 0.58,0.54 1.02,0.65 0.44,0.12 1.01,0.19 1.73,0.21 v 1.27 z"
       data-paper-data="{&quot;elementType&quot;:&quot;letter&quot;,&quot;baseline&quot;:77,&quot;baselineProportion&quot;:1,&quot;fontSize&quot;:100}"
       id="path3352"
       inkscape:connector-curvature="0"
       style="fill:#1a1a1a" />
  </g>
</svg>
