<?xml version="1.0" encoding="UTF-8" standalone="no"?>
<!-- Generator: Adobe Illustrator 19.0.0, SVG Export Plug-In . SVG Version: 6.00 Build 0)  -->

<svg
   xmlns:dc="http://purl.org/dc/elements/1.1/"
   xmlns:cc="http://creativecommons.org/ns#"
   xmlns:rdf="http://www.w3.org/1999/02/22-rdf-syntax-ns#"
   xmlns:svg="http://www.w3.org/2000/svg"
   xmlns="http://www.w3.org/2000/svg"
   xmlns:sodipodi="http://sodipodi.sourceforge.net/DTD/sodipodi-0.dtd"
   xmlns:inkscape="http://www.inkscape.org/namespaces/inkscape"
   version="1.1"
   id="Capa_1"
   x="0px"
   y="0px"
   viewBox="0 0 60 60"
   style="enable-background:new 0 0 60 60;"
   xml:space="preserve"
   width="512px"
   height="512px"
   sodipodi:docname="more.svg"
   inkscape:version="0.92.0 r"><metadata
     id="metadata4982"><rdf:RDF><cc:Work
         rdf:about=""><dc:format>image/svg+xml</dc:format><dc:type
           rdf:resource="http://purl.org/dc/dcmitype/StillImage" /></cc:Work></rdf:RDF></metadata><defs
     id="defs4980" /><sodipodi:namedview
     pagecolor="#ffffff"
     bordercolor="#666666"
     borderopacity="1"
     objecttolerance="10"
     gridtolerance="10"
     guidetolerance="10"
     inkscape:pageopacity="0"
     inkscape:pageshadow="2"
     inkscape:window-width="1916"
     inkscape:window-height="1041"
     id="namedview4978"
     showgrid="false"
     inkscape:zoom="1.6699219"
     inkscape:cx="256"
     inkscape:cy="256"
     inkscape:window-x="1920"
     inkscape:window-y="18"
     inkscape:window-maximized="0"
     inkscape:current-layer="Capa_1" /><g
     id="g4945"><path
       d="M8,22c-4.411,0-8,3.589-8,8s3.589,8,8,8s8-3.589,8-8S12.411,22,8,22z M8,36c-3.309,0-6-2.691-6-6s2.691-6,6-6s6,2.691,6,6   S11.309,36,8,36z"
       fill="#006DF0"
       id="path4939" /><path
       d="M52,22c-4.411,0-8,3.589-8,8s3.589,8,8,8s8-3.589,8-8S56.411,22,52,22z M52,36c-3.309,0-6-2.691-6-6s2.691-6,6-6   s6,2.691,6,6S55.309,36,52,36z"
       fill="#006DF0"
       id="path4941" /><path
       d="M30,22c-4.411,0-8,3.589-8,8s3.589,8,8,8s8-3.589,8-8S34.411,22,30,22z M30,36c-3.309,0-6-2.691-6-6s2.691-6,6-6   s6,2.691,6,6S33.309,36,30,36z"
       fill="#006DF0"
       id="path4943" /></g><g
     id="g4947" /><g
     id="g4949" /><g
     id="g4951" /><g
     id="g4953" /><g
     id="g4955" /><g
     id="g4957" /><g
     id="g4959" /><g
     id="g4961" /><g
     id="g4963" /><g
     id="g4965" /><g
     id="g4967" /><g
     id="g4969" /><g
     id="g4971" /><g
     id="g4973" /><g
     id="g4975" /></svg>