<?xml version="1.0" encoding="UTF-8" standalone="no"?>
<!-- Generator: Adobe Illustrator 19.0.0, SVG Export Plug-In . SVG Version: 6.00 Build 0)  -->

<svg
   xmlns:dc="http://purl.org/dc/elements/1.1/"
   xmlns:cc="http://creativecommons.org/ns#"
   xmlns:rdf="http://www.w3.org/1999/02/22-rdf-syntax-ns#"
   xmlns:svg="http://www.w3.org/2000/svg"
   xmlns="http://www.w3.org/2000/svg"
   xmlns:sodipodi="http://sodipodi.sourceforge.net/DTD/sodipodi-0.dtd"
   xmlns:inkscape="http://www.inkscape.org/namespaces/inkscape"
   version="1.1"
   id="Capa_1"
   x="0px"
   y="0px"
   viewBox="0 0 57 57"
   style="enable-background:new 0 0 57 57;"
   xml:space="preserve"
   sodipodi:docname="rewind.svg"
   inkscape:version="0.92.0 r"><metadata
     id="metadata4580"><rdf:RDF><cc:Work
         rdf:about=""><dc:format>image/svg+xml</dc:format><dc:type
           rdf:resource="http://purl.org/dc/dcmitype/StillImage" /></cc:Work></rdf:RDF></metadata><defs
     id="defs4578" /><sodipodi:namedview
     pagecolor="#ffffff"
     bordercolor="#666666"
     borderopacity="1"
     objecttolerance="10"
     gridtolerance="10"
     guidetolerance="10"
     inkscape:pageopacity="0"
     inkscape:pageshadow="2"
     inkscape:window-width="956"
     inkscape:window-height="1041"
     id="namedview4576"
     showgrid="false"
     inkscape:zoom="15"
     inkscape:cx="27.566667"
     inkscape:cy="28.5"
     inkscape:window-x="1920"
     inkscape:window-y="18"
     inkscape:window-maximized="0"
     inkscape:current-layer="Capa_1" /><path
     d="M56.461,8.625c-0.333-0.172-0.73-0.145-1.036,0.069L29,27.277V9.5c0-0.373-0.208-0.716-0.539-0.888  c-0.333-0.172-0.731-0.146-1.036,0.07l-27,19C0.158,27.869,0,28.175,0,28.5s0.158,0.631,0.425,0.817l27,19  C27.597,48.439,27.798,48.5,28,48.5c0.157,0,0.315-0.037,0.461-0.112C28.792,48.216,29,47.873,29,47.5V29.723l26.425,18.583  c0.172,0.12,0.373,0.182,0.575,0.182c0.157,0,0.315-0.037,0.461-0.112C56.792,48.203,57,47.86,57,47.487V9.513  C57,9.14,56.792,8.797,56.461,8.625z M27,45.573L2.737,28.5L27,11.427V45.573z M55,45.562L30.738,28.5L55,11.439V45.562z"
     id="path4543"
     style="stroke:none;stroke-opacity:1;fill:#73879c;fill-opacity:1" /><g
     id="g4545" /><g
     id="g4547" /><g
     id="g4549" /><g
     id="g4551" /><g
     id="g4553" /><g
     id="g4555" /><g
     id="g4557" /><g
     id="g4559" /><g
     id="g4561" /><g
     id="g4563" /><g
     id="g4565" /><g
     id="g4567" /><g
     id="g4569" /><g
     id="g4571" /><g
     id="g4573" /></svg>