<?xml version="1.0" encoding="UTF-8" standalone="no"?>
<!-- Generator: Adobe Illustrator 16.0.0, SVG Export Plug-In . SVG Version: 6.00 Build 0)  -->

<svg
   xmlns:dc="http://purl.org/dc/elements/1.1/"
   xmlns:cc="http://creativecommons.org/ns#"
   xmlns:rdf="http://www.w3.org/1999/02/22-rdf-syntax-ns#"
   xmlns:svg="http://www.w3.org/2000/svg"
   xmlns="http://www.w3.org/2000/svg"
   xmlns:sodipodi="http://sodipodi.sourceforge.net/DTD/sodipodi-0.dtd"
   xmlns:inkscape="http://www.inkscape.org/namespaces/inkscape"
   version="1.1"
   id="Capa_1"
   x="0px"
   y="0px"
   width="512px"
   height="512px"
   viewBox="0 0 303.92 303.92"
   style="enable-background:new 0 0 303.92 303.92;"
   xml:space="preserve"
   inkscape:version="0.91 r"
   sodipodi:docname="stack.svg"><metadata
     id="metadata3635"><rdf:RDF><cc:Work
         rdf:about=""><dc:format>image/svg+xml</dc:format><dc:type
           rdf:resource="http://purl.org/dc/dcmitype/StillImage" /><dc:title></dc:title></cc:Work></rdf:RDF></metadata><defs
     id="defs3633" /><sodipodi:namedview
     pagecolor="#ffffff"
     bordercolor="#666666"
     borderopacity="1"
     objecttolerance="10"
     gridtolerance="10"
     guidetolerance="10"
     inkscape:pageopacity="0"
     inkscape:pageshadow="2"
     inkscape:window-width="636"
     inkscape:window-height="881"
     id="namedview3631"
     showgrid="false"
     inkscape:zoom="0.4609375"
     inkscape:cx="256"
     inkscape:cy="256"
     inkscape:window-x="640"
     inkscape:window-y="18"
     inkscape:window-maximized="0"
     inkscape:current-layer="Capa_1" /><g
     id="g3589"
     transform="matrix(1,0,0,1.298411,0,-45.346572)"><g
       id="g3591"><path
         d="m 4.922,105.704 143.857,61.572 c 1.015,0.443 2.099,0.654 3.185,0.654 1.086,0 2.165,-0.222 3.185,-0.654 l 143.854,-61.572 c 3.037,-1.303 4.983,-4.311 4.914,-7.615 -0.068,-3.306 -2.136,-6.233 -5.221,-7.403 L 154.838,35.973 c -1.859,-0.709 -3.905,-0.709 -5.759,0 L 5.226,90.685 c -3.085,1.17 -5.152,4.103 -5.224,7.403 -0.068,3.299 1.88,6.318 4.92,7.616 z M 151.959,52.209 274.192,98.697 151.959,151.017 29.724,98.698 151.959,52.209 Z"
         id="path3593"
         inkscape:connector-curvature="0"
         style="fill:#006df0" /><path
         d="m 4.922,140.743 147.037,62.936 147.034,-62.936 c 4.118,-1.761 6.022,-6.523 4.261,-10.634 -1.756,-4.103 -6.502,-6.03 -10.631,-4.261 L 151.959,186.06 11.29,125.848 c -4.116,-1.764 -8.873,0.153 -10.634,4.261 -1.761,4.116 0.151,8.873 4.266,10.634 z"
         id="path3595"
         inkscape:connector-curvature="0"
         style="fill:#006df0" /><path
         d="m 4.922,173.14 147.037,62.938 147.034,-62.938 c 4.118,-1.761 6.022,-6.518 4.261,-10.631 -1.756,-4.103 -6.502,-6.033 -10.631,-4.261 L 151.959,218.46 11.29,158.249 c -4.116,-1.762 -8.873,0.152 -10.634,4.261 -1.761,4.113 0.151,8.869 4.266,10.63 z"
         id="path3597"
         inkscape:connector-curvature="0"
         style="fill:#006df0" /><path
         d="m 4.922,205.541 147.037,62.938 147.034,-62.938 c 4.118,-1.762 6.022,-6.519 4.261,-10.632 -1.756,-4.103 -6.502,-6.021 -10.631,-4.261 L 151.959,250.86 11.29,190.648 c -4.116,-1.761 -8.873,0.153 -10.634,4.261 -1.761,4.113 0.151,8.87 4.266,10.632 z"
         id="path3599"
         inkscape:connector-curvature="0"
         style="fill:#006df0" /></g></g><g
     id="g3601" /><g
     id="g3603" /><g
     id="g3605" /><g
     id="g3607" /><g
     id="g3609" /><g
     id="g3611" /><g
     id="g3613" /><g
     id="g3615" /><g
     id="g3617" /><g
     id="g3619" /><g
     id="g3621" /><g
     id="g3623" /><g
     id="g3625" /><g
     id="g3627" /><g
     id="g3629" /></svg>