<?xml version="1.0" encoding="UTF-8" standalone="no"?>
<!-- Generator: Adobe Illustrator 19.1.0, SVG Export Plug-In . SVG Version: 6.00 Build 0)  -->

<svg
   xmlns:osb="http://www.openswatchbook.org/uri/2009/osb"
   xmlns:dc="http://purl.org/dc/elements/1.1/"
   xmlns:cc="http://creativecommons.org/ns#"
   xmlns:rdf="http://www.w3.org/1999/02/22-rdf-syntax-ns#"
   xmlns:svg="http://www.w3.org/2000/svg"
   xmlns="http://www.w3.org/2000/svg"
   xmlns:sodipodi="http://sodipodi.sourceforge.net/DTD/sodipodi-0.dtd"
   xmlns:inkscape="http://www.inkscape.org/namespaces/inkscape"
   version="1.1"
   id="Capa_1"
   x="0px"
   y="0px"
   viewBox="0 0 487.222 487.222"
   style="enable-background:new 0 0 487.222 487.222;"
   xml:space="preserve"
   width="512px"
   height="512px"
   sodipodi:docname="star-filled.svg"
   inkscape:version="0.91 r"><metadata
     id="metadata3824"><rdf:RDF><cc:Work
         rdf:about=""><dc:format>image/svg+xml</dc:format><dc:type
           rdf:resource="http://purl.org/dc/dcmitype/StillImage" /><dc:title></dc:title></cc:Work></rdf:RDF></metadata><defs
     id="defs3822"><linearGradient
       id="linearGradient4651"
       osb:paint="solid"><stop
         style="stop-color:#006def;stop-opacity:1;"
         offset="0"
         id="stop4649" /></linearGradient></defs><sodipodi:namedview
     pagecolor="#ffffff"
     bordercolor="#666666"
     borderopacity="1"
     objecttolerance="10"
     gridtolerance="10"
     guidetolerance="10"
     inkscape:pageopacity="0"
     inkscape:pageshadow="2"
     inkscape:window-width="1280"
     inkscape:window-height="920"
     id="namedview3820"
     showgrid="false"
     inkscape:zoom="1.1808131"
     inkscape:cx="148.14553"
     inkscape:cy="155.09579"
     inkscape:window-x="0"
     inkscape:window-y="0"
     inkscape:window-maximized="0"
     inkscape:current-layer="g3787" /><g
     id="g3787"
     style="fill:#006df0;fill-opacity:1"><path
       d="m 486.554,186.811 c -1.6,-4.9 -5.8,-8.4 -10.9,-9.2 l -152,-21.6 -68.4,-137.5 c -2.3,-4.6 -7,-7.5 -12.1,-7.5 v 0 c -5.1,0 -9.8,2.9 -12.1,7.6 l -67.5,137.9 -152,22.6 c -5.1,0.8 -9.3,4.3 -10.9,9.2 -1.6,4.9 -0.2,10.3 3.5,13.8 l 110.3,106.9 -25.5,151.4 c -0.9,5.1 1.2,10.2 5.4,13.2 2.3,1.7 5.1,2.6 7.9,2.6 2.2,0 4.3,-0.5 6.3,-1.6 l 135.7,-71.9 136.1,71.1 c 2,1 4.1,1.5 6.2,1.5 v 0 c 7.4,0 13.5,-6.1 13.5,-13.5 0,-1.1 -0.1,-2.1 -0.4,-3.1 l -26.3,-150.5 109.6,-107.5 c 3.9,-3.6 5.2,-9 3.6,-13.9 z"
       id="path3785"
       style="opacity:1;fill:#73879c;fill-opacity:1;stroke:none;stroke-width:21.50628281;stroke-miterlimit:4;stroke-dasharray:none;stroke-opacity:1"
       inkscape:connector-curvature="0"
       sodipodi:nodetypes="sccccccccsccccscccccscccs" /></g><g
     id="g3789" /><g
     id="g3791" /><g
     id="g3793" /><g
     id="g3795" /><g
     id="g3797" /><g
     id="g3799" /><g
     id="g3801" /><g
     id="g3803" /><g
     id="g3805" /><g
     id="g3807" /><g
     id="g3809" /><g
     id="g3811" /><g
     id="g3813" /><g
     id="g3815" /><g
     id="g3817"
     style="fill:#006def;fill-opacity:1;stroke:#000000;stroke-opacity:1;stroke-width:1.00013735;stroke-miterlimit:4;stroke-dasharray:none;" /></svg>