<?xml version="1.0" encoding="UTF-8" standalone="no"?>
<!-- Generator: Adobe Illustrator 19.0.0, SVG Export Plug-In . SVG Version: 6.00 Build 0)  -->

<svg
   xmlns:dc="http://purl.org/dc/elements/1.1/"
   xmlns:cc="http://creativecommons.org/ns#"
   xmlns:rdf="http://www.w3.org/1999/02/22-rdf-syntax-ns#"
   xmlns:svg="http://www.w3.org/2000/svg"
   xmlns="http://www.w3.org/2000/svg"
   xmlns:sodipodi="http://sodipodi.sourceforge.net/DTD/sodipodi-0.dtd"
   xmlns:inkscape="http://www.inkscape.org/namespaces/inkscape"
   version="1.1"
   id="Capa_1"
   x="0px"
   y="0px"
   viewBox="0 0 508.52 508.52"
   style="enable-background:new 0 0 508.52 508.52;"
   xml:space="preserve"
   width="512px"
   height="512px"
   inkscape:version="0.91 r13725"
   sodipodi:docname="table.svg"><metadata
     id="metadata3488"><rdf:RDF><cc:Work
         rdf:about=""><dc:format>image/svg+xml</dc:format><dc:type
           rdf:resource="http://purl.org/dc/dcmitype/StillImage" /></cc:Work></rdf:RDF></metadata><defs
     id="defs3486" /><sodipodi:namedview
     pagecolor="#ffffff"
     bordercolor="#666666"
     borderopacity="1"
     objecttolerance="10"
     gridtolerance="10"
     guidetolerance="10"
     inkscape:pageopacity="0"
     inkscape:pageshadow="2"
     inkscape:window-width="1916"
     inkscape:window-height="1037"
     id="namedview3484"
     showgrid="false"
     inkscape:zoom="1.6582031"
     inkscape:cx="142.0212"
     inkscape:cy="283.52321"
     inkscape:window-x="0"
     inkscape:window-y="20"
     inkscape:window-maximized="0"
     inkscape:current-layer="g3450" /><g
     id="g3446"><g
       id="g3448"><g
         id="g3450"><path
           d="m 507.948,46.021 c -1.367,-16.368 -14.588,-30.13 -31.21,-30.13 l -444.956,0 C 15.16,15.891 1.938,29.653 0.54,46.021 l -0.54,0 0,414.825 c 0,17.544 14.239,31.782 31.782,31.782 l 444.955,0 c 17.544,0 31.782,-14.239 31.782,-31.782 l 0,-414.825 z m -329.17194,428.72984 -166.858121,0 0,-129.1159 166.858121,0 z m 0,-138.39684 -166.858121,0 0,-117.84906 166.858121,0 z m 0,-129.768 -166.858121,0 0,-154.939184 166.858121,0 z m 158.913,268.16484 -146.99406,0 0,-129.1159 146.99406,0 z m 0,-138.39684 -146.99406,0 0,-117.84906 146.99406,0 z m 0,-129.768 -146.99406,0 0,-154.939184 146.99406,0 z m 158.912,268.16484 -146.99406,0 0,-129.1159 146.99406,0 z m 0,-138.39684 -146.99406,0 0,-117.84906 146.99406,0 z m 0,-129.768 -146.99406,0 0,-154.939184 146.99406,0 z"
           id="path3452"
           style="fill:#006df0;stroke-width:0.89388275;stroke-miterlimit:4;stroke-dasharray:none"
           inkscape:connector-curvature="0"
           sodipodi:nodetypes="cssccssssccccccccccccccccccccccccccccccccccccccccccccccc" /></g></g></g><g
     id="g3454" /><g
     id="g3456" /><g
     id="g3458" /><g
     id="g3460" /><g
     id="g3462" /><g
     id="g3464" /><g
     id="g3466" /><g
     id="g3468" /><g
     id="g3470" /><g
     id="g3472" /><g
     id="g3474" /><g
     id="g3476" /><g
     id="g3478" /><g
     id="g3480" /><g
     id="g3482" /></svg>